<?xml version="1.0" standalone="no"?>
<!DOCTYPE svg PUBLIC "-//W3C//DTD SVG 20010904//EN"
 "http://www.w3.org/TR/2001/REC-SVG-20010904/DTD/svg10.dtd">
<svg version="1.0" xmlns="http://www.w3.org/2000/svg"
 width="612.000000pt" height="407.000000pt" viewBox="0 0 612.000000 407.000000"
 preserveAspectRatio="xMidYMid meet">

<g transform="translate(0.000000,407.000000) scale(0.100000,-0.100000)"
fill="#000000" stroke="none">
<path d="M2947 2906 c-59 -22 -114 -63 -142 -105 -22 -33 -264 -543 -528
-1111 -78 -169 -81 -178 -81 -250 -1 -87 23 -149 82 -207 45 -45 131 -85 174
-81 31 3 34 7 141 238 59 129 185 404 279 610 93 206 174 379 179 384 5 6 25
-26 48 -75 76 -161 173 -374 188 -414 l16 -40 -98 -210 c-54 -115 -126 -271
-160 -345 -35 -74 -61 -138 -59 -142 3 -5 158 -8 344 -8 318 0 343 1 395 21
104 39 174 135 183 250 6 81 8 75 -273 679 -113 245 -230 496 -258 559 -57
125 -115 199 -181 233 -53 28 -192 35 -249 14z"/>
</g>
</svg>
